<?xml version="1.0" encoding="utf-8"?>
<!-- Generator: Adobe Illustrator 21.0.2, SVG Export Plug-In . SVG Version: 6.00 Build 0)  -->
<svg version="1.1" id="Layer_1" xmlns="http://www.w3.org/2000/svg" xmlns:xlink="http://www.w3.org/1999/xlink" x="0px" y="0px"
	 width="384.6px" height="53.9px" viewBox="0 0 384.6 53.9" style="enable-background:new 0 0 384.6 53.9;" xml:space="preserve">
<style type="text/css">
	.st0{fill:#F37143;}
</style>
<g>
	<path class="st0" d="M321.9,14.5c-0.3,0-0.8,0.2-1.7,0.5c-1.3,0.8-2,1.8-2,3.1v0.6c0.8,2.1,1.9,3.1,3.6,3.1h0.5
		c1.9-0.7,2.9-2.1,2.9-4.3v-0.4C324.5,15.3,323.4,14.5,321.9,14.5z M319.5,19.1c-0.2-0.1-0.3-0.2-0.3-0.3v-0.2l0.7-0.8
		C320,18.1,319.8,18.5,319.5,19.1z M322.5,16.7c-0.1,0.2-0.2,0.3-0.3,0.3l0.1-0.4h0.2V16.7z M322.7,15.5c-0.2,0-0.6,0.2-1,0.7h-0.1
		l0.1-0.5c0-0.1-0.1-0.2-0.4-0.2v-0.1c0-0.1,0.2-0.2,0.7-0.3c0.9,0.1,1.4,0.3,1.4,0.6c-0.2,0-0.4,0-0.5,0.1
		C322.8,15.6,322.7,15.5,322.7,15.5z M322.7,18c0.4-1.2,0.7-1.8,0.9-1.8h0.2v0.2C323.2,17.4,322.8,18,322.7,18z M323.2,20.3
		c0,0.1-0.1,0.2-0.2,0.2h-0.1v-0.3L323.2,20.3L323.2,20.3z M324.5,17.8c-0.6,0-0.9,0.2-0.9,0.7h-0.1v-0.1c0.3-0.9,0.5-1.3,0.7-1.3
		C324.3,17,324.4,17.3,324.5,17.8z"/>
	<path class="st0" d="M100.9,46.6c0-0.1,0-0.1,0-0.2l0.2-1.7l-1.3,1.1c-3.2,2.9-7.7,3.9-11.4,2.6c-3.2-1.1-5.3-3.6-6-7.2
		c-0.8-4.1,0.5-9.1,5-10.9c1.1-0.5,2.9-0.8,4.8-1c1.7,0.4,3.3,0.9,4.5,1.6c0.9,0.5,1.2,1,1.2,1.2l1.1-0.3c0.2,0.3,0.4,0.5,0.5,0.8
		l2.6-0.8c-0.2-0.4-0.4-0.7-0.6-1.1l0.7,0c0.1-1.2-0.3-2.3-1.1-3.2c-2.3-2.6-7.6-3.3-11.6-3.6c-3.1-0.2-5.6,0.6-7.4,2.3
		c-1.4,1.2-2.4,3-3,5.2c-0.1,0.2-0.3,0.4-0.4,0.6c-0.4,0.7-0.8,1.5-1,2.3c-0.8,1.8-1,3.7-1,6.1h0.8c0,0,0,0.1,0,0.1
		c-3.9,5.6-7.2,8.5-10,8.5h-0.4l-0.4-0.3c0-0.9,0.1-1.8,0.4-3c1.9-5.4,4.9-11.9,8.9-19.4v-0.6c0-0.1-0.1-0.2-0.3-0.3h-0.6l0,0
		l-0.6-0.3c0,0.1-0.1,0.2-0.1,0.3h-1.1l-0.6-0.1c-0.4,1.8-1.3,4.7-2.2,7.3c-1.9,3.3-3.9,6.7-5.6,11l-1.6-9.9l0.1-0.3
		c-0.4-3.2-0.9-5.8-1.4-7.9c0-0.7-0.8-1.1-2.4-1.1c-3.7,0.1-5.5,0.3-5.5,0.6l2.3,12.8c0,0,0,0.1,0,0.1c-0.4,0.6-0.7,1.3-1,2
		c-1.1,1.6-2.3,3-3.7,4.2c-1.4,1.5-3.8,2.9-7.2,4.1c-2.3,0-4.3-0.6-5.9-1.8c-1.6-1.8-2.5-3.5-2.5-5l0.1-0.3l1.1,0.1
		c3.1-0.4,4.6-0.6,4.6-0.8c2.4,0,5-1.3,7.8-4c1.9-2.6,2.8-4.6,2.8-6.1c0-0.7-0.2-1.6-0.6-2.8c-1.1-2-3.2-3.1-6.4-3.1h-0.5
		c-2.9,0-6.1,1.5-9.7,4.4c-1.7,1.7-3.1,3.4-4,5.3c-0.7,1.3-1.2,3.9-1.5,7.8c0.2,1.6,0.4,2.5,0.5,2.6c-1.7,2.8-3,4.2-3.8,4.2
		c-0.8,0-1.3-0.5-1.6-1.6c0-2.4,0.1-6.2,0.4-11.2c0-0.1,0.2-0.3,0.5-0.6v-0.8l-0.1-0.6c0.1,0,0.1,0,0.1-0.1l-0.1-0.3
		c0.1-0.7,0.1-1.3,0.1-1.7v-0.7l0.1-0.6c-0.1,0-0.1,0-0.1-0.1c0.5-3.4,0.8-6.4,0.8-9v-1c0-0.4,0-0.8-0.1-1.4c0.6-5,1-10.9,1.4-17.6
		V1.2c0-0.4-0.9-0.8-2.6-1.2c-0.1,0-0.4,0.1-1,0.3h-2.1l-0.6-0.1v0.1c-0.7,0.2-1,0.4-1,0.5V1c0,0.2,0.1,0.3,0.3,0.3l-1.6,25.6h-0.1
		l-0.5-0.4c-1.4-1.3-3.4-2-6.2-2h-0.5c-1,0-2.1,0.3-3.4,1c-1.8,0.8-3.5,2.2-4.9,4.2C1.2,32.4,0,35.8,0,39.9v0.5
		c0,4.6,1.4,8.1,4.3,10.6c0,0.7,1.6,1.3,4.7,2.1c0.4,0,0.8,0,1.2-0.1c2.4,0,5.1-2.1,8.1-6.4h0.1c0,0.3-0.1,0.9-0.3,1.7
		c0,1.4,0.5,2.9,1.6,4.4l2.2,1.2c0.1-0.1,0.4-0.1,0.9-0.1c2.1,0,4.4-1.6,6.7-4.9c0.5-0.8,0.9-1.6,1.3-2.4c0.5,1.3,1.5,2.8,3.1,4.3
		c0.7,0.8,2.7,1.6,5.9,2.3c0.2,0,0.7-0.1,1.5-0.3c0.2,0.1,0.3,0.1,0.4,0.1c0.5,0,1.8-0.4,3.8-1.3c0.7-0.1,2.6-1.5,5.8-4.2
		c2.6-3,4.4-5.7,5.3-8.1c0.7,3.8,1.5,7.2,2.6,10.3c1.6,2.3,3,3.5,4.2,3.5H65c2.8-0.7,5.7-2.3,8.5-5.1c1.8-1.8,3.2-3.5,4.3-5
		c0,2.5,0.7,4.8,3.9,6.9c0.7,0.4,1.7,1.1,3,1.7c0.5,0.3,1,0.6,1.6,0.9c1.3,0.6,2.8,1,4.3,1.1c0.8,0.1,1.6,0.2,2.5,0.2
		c2.9,0,5.9-1,8.4-3.8l-0.5-0.4c0.7-0.8,1.2-1.7,1.6-2.6L100.9,46.6z M56,27l0.1-0.7h0.3C56.4,26.7,56.2,27,56,27z M26.6,5.3h0.1
		v3.1c0,0.2-0.1,0.5-0.2,0.7l0.1,0.3c-0.1,0.4-0.2,0.6-0.4,0.6C26.5,8.3,26.6,6.8,26.6,5.3z M26,14.5c0-0.2,0-0.6,0.1-1.4h0.1v0.6
		l-0.1,1.2H26V14.5z M25.3,27.5c0-3.7,0.2-7.8,0.7-12.2h0.1v0.3c-0.5,7.2-0.8,11.8-0.8,13.8h-0.1V27.5z M1.6,43.8H1.5
		c0-0.1-0.1-0.5-0.3-1.3v-0.4h0.1l0.3,1.5V43.8z M2.3,39.5H2.1c0.1-1.3,0.3-2,0.5-2c0,0.2,0,0.3,0.1,0.5C2.5,38.8,2.3,39.3,2.3,39.5
		z M3,35.3c0,0.1-0.1,0.6-0.3,1.5l-0.3-0.1c0-0.3,0.1-0.8,0.4-1.5H3V35.3z M8,31.4c0.7-1.1,1.1-1.6,1.2-1.6
		c-0.2,0.6-0.6,1.2-1.2,1.7V31.4z M5.2,35c0.2,0,0.3,0.1,0.3,0.3c-0.3,0.9-0.5,1.4-0.5,1.5V37c0,0.2,0.1,0.3,0.4,0.3l-0.1,0.9H4.9
		c0-0.3-0.1-0.7-0.4-1.1C4.6,36.8,4.8,36.2,5.2,35z M3.7,41.1c0-0.1,0.1-0.2,0.3-0.3c0.2,1.9,0.4,3.1,0.4,3.8v0.1H4.1
		c-0.2-0.9-0.4-1.7-0.4-2.2V41.1z M5.9,50c-1.6-1.2-2.3-2.1-2.3-2.5v-0.3c0.3,0.2,0.5,0.3,0.9,0.3C5.6,49,6.2,49.8,6.2,50H5.9z
		 M18.6,41.2v2.6c-0.1,0-0.3,0.1-0.5,0.3c-1.9,3.8-4.5,5.7-7.9,5.7c0-0.2-0.2-0.3-0.6-0.3c-0.8-0.3-1.6-1.2-2.3-2.6
		c-0.6-1.4-1-3.3-1.2-5.7c0-3.7,1.1-7,3.3-9.8c1.3-2,3-3,5.2-3c1.1,0,2.3,0.7,3.6,2.1c0.6,0.5,0.9,1.9,0.9,4.1
		C18.8,37.8,18.6,40.1,18.6,41.2z M20.2,39.5l-0.1,0.6H20V40c0.1-0.7,0.1-1.2,0.1-1.3h0.1V39.5z M22.6,12.6l0.3-2.8H23v1.6
		c0,0.4,0,1.1-0.1,2.1h-0.1c0-0.2,0-0.4-0.1-0.5h0.1C22.7,12.9,22.7,12.8,22.6,12.6z M22,51.5h-0.2v-1c0.1,0,0.2,0.1,0.2,0.3V51.5z
		 M22.2,41c0,0.9-0.1,2-0.3,3.3h-0.1l-0.1-1.2V41l0.1-0.6h0.4V41z M22.5,36.9h-0.1c0.1-0.8,0.1-1.5,0.1-1.9v-4.3h0.1
		c0,0.1,0,0.2,0.1,0.4c0.1,2.1,0.1,3.8,0.1,5v0.4C22.7,36.8,22.6,36.9,22.5,36.9z M23.8,52.3c0,0.2-0.3,0.3-0.9,0.4l-0.3-0.1
		c0.5-0.3,0.7-0.6,0.7-0.7h0.1c0.2,0,0.3,0.1,0.3,0.3V52.3z M24.1,40h-0.3v-1.6c0-0.1,0.1-0.2,0.3-0.3V40z M24.1,25.2
		c-0.2,2.3-0.3,3.5-0.3,3.7h-0.1v-0.7c0-0.1,0-0.3,0.1-0.8l-0.1-0.3l0.3-2.3h0.1V25.2z M24.1,19.8c-0.2,0.8-0.3,1.2-0.3,1.3h-0.1
		v-1.5l0.1-0.3c0.2,0,0.3,0.1,0.3,0.3V19.8z M24.6,4.1h-0.2c-0.1-1.5-0.1-2.3-0.1-2.6V1.4h0.4V4.1z M27.2,50.2H27V50
		c0.2,0,0.4-0.1,0.7-0.4h0.1C27.7,49.9,27.5,50.1,27.2,50.2z M31.2,43.1c0.1,0,0.1,0,0.1-0.1v-0.3c0-0.2-0.1-0.5-0.3-0.8h0.1
		c0-0.2,0-0.4-0.1-0.5c0-0.1,0-0.2,0.1-0.4l-0.1-0.5c0-0.2,0.2-1.2,0.5-3.1h0.3c-0.1,2.7-0.2,4-0.3,4.1c0,0.4,0.1,0.7,0.1,1.1
		c-0.1,0.3-0.3,0.5-0.4,0.8C31.3,43.3,31.2,43.2,31.2,43.1z M32.6,47c-0.3,0-0.6-0.7-1-2c0.1-0.2,0.2-0.4,0.3-0.6
		c0.2,1.7,0.5,2.6,0.9,2.6H32.6z M33.5,48.3c-0.1,0-0.2-0.1-0.2-0.3v-0.1c0.2,0,0.2,0.1,0.2,0.3V48.3z M46.4,28.1h0.5v0.1h-0.5V28.1
		z M43.9,28.5l1.5-0.3h0.3v0.1c-0.7,0.1-1.3,0.2-1.8,0.4V28.5z M40.1,30.7c0.4-0.5,0.6-0.8,0.8-0.8h0.3c-0.5,0.6-0.8,0.9-0.9,0.9
		h-0.1V30.7z M41.1,31.5c1.3-1.2,3-1.8,5.1-2.1h0.6c1.8,0.4,2.7,1.1,2.7,2.2c0,1.5-0.6,3.1-1.9,4.9c-1,0.6-1.5,1.1-1.5,1.4
		c-1.2,0.2-1.8,0.5-1.8,0.9h-0.4c-2.5,0.9-4.8,1.3-6.8,1.3l-0.6-0.1C36.5,37,38,34.2,41.1,31.5z M38.9,28.7v0.1
		c-0.9,1-1.4,1.5-1.5,1.5h-0.3C37.6,29.7,38.2,29.2,38.9,28.7z M36.5,31.2v0.3c-0.9,1.6-1.4,2.5-1.4,3h-0.3
		C34.8,33.8,35.4,32.7,36.5,31.2z M35.9,44.7V45c-0.1,0-0.2-0.1-0.3-0.3v-0.3C35.8,44.4,35.9,44.5,35.9,44.7z M34.7,47.9
		c-0.3-0.9-0.4-1.7-0.4-2.3h0.3c0.3,1.3,0.4,2.1,0.4,2.3H34.7z M35.1,42.5V42h0.1l0.3,1.7C35.3,43.7,35.1,43.3,35.1,42.5z
		 M35.6,49.9v-0.1l0.4-0.5c0.2,0,0.7,0.4,1.3,1.1C37.1,50.4,36.6,50.3,35.6,49.9z M57.1,31.9V32c-0.2,0-0.3-0.4-0.4-1.1
		C56.9,30.9,57.1,31.2,57.1,31.9z M57.8,27.2c0.6,0,0.9,1.5,1,4.4h-0.3c0-0.5-0.3-2-1-4.4H57.8z M57.7,35.3h0.1l0.4,2.8v0.6h-0.1
		l-0.4-3.2V35.3z M60.4,46.4h-0.1c-0.8-2.3-1.5-4.7-2.1-7.2c0-0.3,0.1-0.4,0.3-0.4c0.5,2.3,1.1,4.8,2,7.3V46.4z M78,39.8
		c0-1.1,0.1-2.2,0.3-3.1c-0.2,0.9-0.2,1.8-0.2,2.8c0,0,0,0.1,0,0.1C78.1,39.6,78.1,39.7,78,39.8C78,39.7,78,39.7,78,39.8z M81,38.5
		l0,0.7c0,1.3,0.1,2.8,0.4,4.2c-0.4-1.3-0.7-2.6-0.7-4c0-1,0.1-1.9,0.3-2.9C81,37.3,81,37.9,81,38.5z M92,25.5L92,25.5
		c0.2,0,0.3,0,0.5,0C92.3,25.5,92.1,25.5,92,25.5z M89.1,50.5c1.1,0.1,2.1,0.1,3,0.1c1.4,0,2.6-0.1,3.6-0.3
		c-0.5,0.2-0.9,0.4-1.4,0.5c-0.9,0.3-1.9,0.4-2.8,0.4c-1.5,0-2.8-0.3-4.1-0.9c-0.2-0.1-0.4-0.2-0.6-0.3
		C87.4,50.3,88.2,50.4,89.1,50.5z M87.2,29.2c-2.1,0.9-3.6,2.3-4.6,4c0.1-0.3,0.1-0.5,0.2-0.8c0.3-0.4,0.6-0.8,1-1.2
		c0.9-1,2-1.8,3.3-2.4c0.2,0,0.4,0,0.6,0c0.3,0,0.5,0,0.8,0C88,28.9,87.5,29.1,87.2,29.2z M92.5,28.1c-0.5-0.1-1-0.2-1.5-0.3
		c0.1,0,0.2,0,0.3,0c0.8,0,1.5,0.1,2.2,0.3C93.2,28.1,92.9,28.1,92.5,28.1z M101,29.9c-0.8-1.1-1.8-2-3-2.7c-0.7-0.4-1.6-0.8-2.4-1
		c2.2,0.6,3.8,1.3,4.7,2.3C100.7,28.9,100.9,29.4,101,29.9z M88.6,25.3c-1.1,0.2-2.3,0.5-3.3,0.9l-0.4,0c-0.2,0-0.4,0.1-0.6,0.1
		C85.4,25.6,86.9,25.3,88.6,25.3z M79.3,45.3c0.3,0.6,0.6,1.2,0.9,1.8C79.8,46.5,79.5,45.9,79.3,45.3z"/>
	<path class="st0" d="M129.1,29.7c-1.2-1.3-2.6-2.3-4.2-3.1c-1.6-0.7-3.4-1.1-5.3-1.1c-1.9,0-3.6,0.4-5.2,1.1
		c-1.6,0.7-3,1.8-4.2,3.1c-1.2,1.3-2.1,2.8-2.8,4.5c-0.7,1.7-1,3.5-1,5.4c0,1.9,0.3,3.7,1,5.4c0.7,1.7,1.6,3.2,2.8,4.5
		c1.2,1.3,2.6,2.3,4.2,3.1c1.6,0.7,3.4,1.1,5.3,1.1c1.9,0,3.6-0.4,5.3-1.1c1.6-0.7,3.1-1.8,4.2-3.1c1.2-1.3,2.1-2.8,2.8-4.5
		s1-3.5,1-5.4c0-1.9-0.3-3.7-1-5.4C131.2,32.5,130.3,31,129.1,29.7z M119.5,51.3c-1.1-0.2-2.3-0.5-3.5-1c0,0,0,0,0,0
		c0.9,0.4,1.9,0.7,3,0.8c0.4,0,0.8,0.1,1.2,0.1c0.7,0,1.5-0.1,2.2-0.2C121.5,51.2,120.6,51.3,119.5,51.3
		C119.6,51.3,119.5,51.3,119.5,51.3z M127.5,47.3c-0.1,0.1-0.2,0.2-0.2,0.3c-2.7,1.7-5.5,2.5-8.2,2.2c-2.5-0.3-4.7-1.5-6.4-3.7
		c-2.5-3.1-3.1-9.2-1.4-13c0-0.1,0.1-0.1,0.1-0.2l0.2,0.1c0.4-0.9,1.2-1.6,2.2-2.2l2.2-0.8c0.5-0.2,0.9-0.4,1.4-0.6
		c0.8-0.2,1.5-0.3,2.2-0.3c0.6,0,1.3,0.1,1.9,0.1l0-0.2c1,0.4,2,0.8,2.9,1.4l-0.1,0.3c1.9,0.6,3.4,3.4,4.1,7.6
		C129,41.6,128.8,45.4,127.5,47.3z M129.4,44.1c-0.1,0.2-0.2,0.4-0.3,0.6c0.4-2,0.3-4.4,0-6.6c-0.3-1.7-0.7-3.4-1.5-4.9
		c1,1.4,1.8,3.2,2,5.5c0.1,1.4,0.2,3.1,0,4.7C129.5,43.7,129.5,43.9,129.4,44.1z M109.9,43.4c0.2,0.4,0.3,0.7,0.5,1.1
		c0.4,0.9,0.9,1.8,1.4,2.5c0.3,0.4,0.6,0.7,1,1.1c0.3,0.4,0.7,0.8,1.1,1.2c-0.6-0.3-1.1-0.7-1.6-1.1c-0.1-0.1-0.1-0.1-0.2-0.2
		c-0.8-0.9-1.5-1.9-2-3C110,44.4,109.9,43.9,109.9,43.4z"/>
	<path class="st0" d="M159.5,50.9c-0.5,0.1-1,0.1-1.4,0.1c-1,0-1.8-0.3-2.4-0.9c-0.6-0.6-0.9-1.4-0.9-2.4V15h-2.7v33.6
		c0,1.5,0.4,2.7,1.3,3.6c0.9,0.9,2.1,1.3,3.5,1.3c0.6,0,1.4-0.1,2.2-0.2c0.9-0.2,1.6-0.4,2.2-0.6l-0.5-2.1
		C160.6,50.7,160.1,50.8,159.5,50.9z"/>
	<path class="st0" d="M185.3,49.5V36.2c0-3.3-1-6-2.8-7.9c-1.9-1.9-4.5-2.8-7.8-2.8c-3.1,0-6.4,1.2-9.9,3.6l1,1.8
		c1.5-1,3-1.8,4.5-2.4c1.5-0.6,2.9-0.8,4.3-0.8c2.5,0,4.5,0.8,6,2.3c1.5,1.5,2.2,3.6,2.2,6.1v2.7c-1.2-0.5-2.5-0.8-4-1.1
		c-1.5-0.3-3-0.4-4.4-0.4c-1.7,0-3.2,0.2-4.6,0.6c-1.4,0.4-2.6,1-3.6,1.7c-1,0.7-1.8,1.6-2.4,2.5c-0.6,1-0.8,2.1-0.8,3.2
		c0,1.2,0.2,2.3,0.7,3.3c0.5,1,1.1,1.9,1.9,2.7c0.8,0.8,1.8,1.3,2.9,1.8c1.1,0.4,2.3,0.7,3.5,0.7c2.3,0,4.4-0.4,6.3-1.3
		c1.9-0.9,3.5-2.1,4.8-3.8v2.2c0,0.7,0.3,1.3,0.8,1.7c0.5,0.4,1.1,0.7,1.7,0.7c0.1,0,0.3,0,0.4,0c0.2,0,0.3,0,0.5-0.1v-2.4
		C185.7,50.8,185.3,50.4,185.3,49.5z M182.7,45.3c0,0.7-0.3,1.4-0.9,2.1c-0.8,1.3-2.1,2.3-3.8,3.1c-1.7,0.7-3.6,1.1-5.6,1.1
		c-1,0-1.9-0.2-2.7-0.5c-0.9-0.3-1.6-0.8-2.2-1.4c-0.6-0.6-1.1-1.3-1.5-2.1c-0.3-0.8-0.5-1.7-0.5-2.6c0-1.8,0.8-3.3,2.5-4.4
		c1.7-1.1,3.9-1.7,6.6-1.7c2.8,0,5.5,0.5,8.2,1.5V45.3z"/>
	<path class="st0" d="M215.6,30c-1.1-1.3-2.4-2.4-3.9-3.2c-1.6-0.8-3.3-1.2-5.2-1.2c-2.3,0-4.3,0.6-6.1,1.8
		c-1.7,1.2-3.3,2.7-4.5,4.6V15h-2.6v38.2h2.4v-5.4c1,1.7,2.5,3.2,4.3,4.3c1.8,1.1,3.9,1.7,6,1.7c1.8,0,3.5-0.4,5.1-1.2
		c1.6-0.8,3-1.8,4.1-3.1c1.2-1.3,2.1-2.8,2.7-4.4c0.7-1.7,1-3.5,1-5.4c0-1.7-0.3-3.5-0.9-5.1C217.5,32.8,216.7,31.3,215.6,30z
		 M215.5,44c-0.5,1.4-1.3,2.6-2.3,3.7c-1,1.1-2.1,2-3.4,2.6c-1.3,0.7-2.8,1-4.3,1c-0.9,0-2-0.2-3-0.6c-1.1-0.4-2.1-0.9-3-1.5
		c-0.9-0.6-1.7-1.4-2.4-2.3c-0.6-0.9-1-1.8-1.1-2.8v-9c0.5-0.9,1-1.8,1.7-2.7c0.7-0.9,1.4-1.6,2.3-2.3c0.9-0.7,1.8-1.2,2.8-1.6
		c1-0.4,2.1-0.6,3.3-0.6c1.5,0,2.9,0.3,4.2,1c1.3,0.7,2.4,1.5,3.3,2.6c0.9,1.1,1.6,2.4,2.1,3.8c0.5,1.4,0.8,2.9,0.8,4.4
		C216.3,41.1,216,42.6,215.5,44z"/>
	<path class="st0" d="M246.2,29.7c-1.2-1.3-2.6-2.3-4.2-3.1c-1.6-0.7-3.4-1.1-5.3-1.1c-1.9,0-3.6,0.4-5.2,1.1
		c-1.6,0.7-3,1.8-4.2,3.1c-1.2,1.3-2.1,2.8-2.8,4.5c-0.7,1.7-1,3.5-1,5.4c0,1.9,0.3,3.7,1,5.4c0.7,1.7,1.6,3.2,2.8,4.5
		c1.2,1.3,2.6,2.3,4.2,3.1c1.6,0.7,3.4,1.1,5.3,1.1c1.9,0,3.6-0.4,5.3-1.1c1.6-0.7,3-1.8,4.2-3.1c1.2-1.3,2.1-2.8,2.8-4.5
		c0.7-1.7,1-3.5,1-5.4c0-1.9-0.3-3.7-1-5.4C248.3,32.5,247.4,31,246.2,29.7z M246.5,44.1c-0.6,1.4-1.3,2.7-2.3,3.7
		c-1,1.1-2.1,1.9-3.4,2.5c-1.3,0.6-2.7,0.9-4.1,0.9c-1.5,0-2.8-0.3-4.1-0.9c-1.3-0.6-2.4-1.4-3.4-2.5c-1-1-1.7-2.3-2.3-3.7
		c-0.6-1.4-0.8-2.9-0.8-4.5c0-1.6,0.3-3.1,0.8-4.6c0.6-1.4,1.3-2.7,2.3-3.8c1-1.1,2.1-1.9,3.4-2.6c1.3-0.6,2.6-0.9,4.1-0.9
		c1.5,0,2.8,0.3,4.1,0.9c1.3,0.6,2.4,1.5,3.4,2.5c1,1.1,1.7,2.3,2.3,3.7c0.6,1.4,0.9,2.9,0.9,4.5C247.4,41.2,247.1,42.7,246.5,44.1z
		"/>
	<path class="st0" d="M267.4,25.9c-1.8,0.2-3.4,0.9-5,2.1c-1.6,1.2-2.8,2.8-3.7,4.7V26h-2.5v27.2h2.6v-17c0.7-2.4,2-4.3,3.8-5.7
		c1.8-1.4,4-2.1,6.4-2.2v-2.5c-0.2,0-0.5,0-0.7,0C268,25.9,267.7,25.9,267.4,25.9z"/>
	<path class="st0" d="M293.7,49.5V36.2c0-3.3-1-6-2.9-7.9c-1.9-1.9-4.5-2.8-7.8-2.8c-3.1,0-6.4,1.2-9.9,3.6l1,1.8
		c1.5-1,3-1.8,4.5-2.4c1.5-0.6,2.9-0.8,4.3-0.8c2.5,0,4.5,0.8,6,2.3c1.5,1.5,2.2,3.6,2.2,6.1v2.7c-1.2-0.5-2.5-0.8-4-1.1
		c-1.5-0.3-3-0.4-4.4-0.4c-1.7,0-3.2,0.2-4.6,0.6c-1.4,0.4-2.6,1-3.6,1.7c-1,0.7-1.8,1.6-2.4,2.5c-0.6,1-0.8,2.1-0.8,3.2
		c0,1.2,0.2,2.3,0.7,3.3c0.5,1,1.1,1.9,1.9,2.7c0.8,0.8,1.8,1.3,2.9,1.8c1.1,0.4,2.3,0.7,3.5,0.7c2.3,0,4.4-0.4,6.3-1.3
		c1.9-0.9,3.5-2.1,4.8-3.8v2.2c0,0.7,0.3,1.3,0.8,1.7c0.5,0.4,1.1,0.7,1.7,0.7c0.1,0,0.3,0,0.4,0c0.2,0,0.3,0,0.5-0.1v-2.4
		C294,50.8,293.7,50.4,293.7,49.5z M291.1,45.3c0,0.7-0.3,1.4-0.9,2.1c-0.8,1.3-2.1,2.3-3.8,3.1c-1.7,0.7-3.6,1.1-5.6,1.1
		c-1,0-1.9-0.2-2.7-0.5c-0.9-0.3-1.6-0.8-2.2-1.4c-0.6-0.6-1.1-1.3-1.5-2.1c-0.3-0.8-0.5-1.7-0.5-2.6c0-1.8,0.8-3.3,2.5-4.4
		c1.7-1.1,3.9-1.7,6.6-1.7c2.8,0,5.5,0.5,8.2,1.5V45.3z"/>
	<path class="st0" d="M311.3,50.5c-0.8,0.4-1.7,0.5-2.8,0.5c-0.9,0-1.7-0.3-2.4-0.8c-0.7-0.5-1-1.3-1-2.3V28.1h6.4V26h-6.4v-9.3
		h-2.6V26h-3.8v2.1h3.8v20.5c0,0.8,0.1,1.5,0.4,2.1c0.3,0.6,0.7,1.1,1.2,1.5c0.5,0.4,1.1,0.7,1.7,0.9c0.6,0.2,1.3,0.3,2.1,0.3
		c0.7,0,1.4-0.1,2-0.2c0.6-0.1,1.2-0.3,1.7-0.5c0.5-0.2,0.9-0.4,1.3-0.5c0.3-0.2,0.6-0.3,0.7-0.4l-0.8-2.1
		C312.6,49.9,312.1,50.1,311.3,50.5z"/>
	<rect x="320.4" y="26" class="st0" width="2.6" height="27.2"/>
	<polygon class="st0" points="342,50.5 332,26 329.3,26 340.6,53.2 343.3,53.2 354.7,26 352.1,26 	"/>
	<path class="st0" d="M383.6,34.1c-0.7-1.7-1.6-3.2-2.8-4.4c-1.2-1.3-2.6-2.3-4.2-3c-1.6-0.7-3.4-1.1-5.3-1.1
		c-1.9,0-3.6,0.4-5.3,1.1c-1.6,0.7-3,1.7-4.2,3c-1.2,1.3-2.1,2.8-2.8,4.4c-0.7,1.7-1,3.5-1,5.4c0,2,0.3,3.8,1,5.5
		c0.7,1.7,1.6,3.2,2.8,4.5c1.2,1.3,2.6,2.3,4.3,3.1c1.6,0.7,3.4,1.1,5.3,1.1c1.3,0,2.5-0.2,3.7-0.5c1.2-0.3,2.3-0.8,3.3-1.4
		c1-0.6,1.9-1.3,2.6-2.1c0.7-0.8,1.3-1.7,1.8-2.7l-2.3-0.6c-0.3,0.8-0.8,1.5-1.4,2.1c-0.6,0.6-1.3,1.2-2.1,1.6
		c-0.8,0.5-1.6,0.8-2.6,1.1c-0.9,0.3-1.9,0.4-2.8,0.4c-1.4,0-2.8-0.3-4-0.8c-1.3-0.6-2.4-1.3-3.3-2.3c-1-1-1.8-2.1-2.4-3.5
		c-0.6-1.3-1-2.8-1.1-4.4h23.9c0-0.1,0-0.2,0-0.5c0-0.3,0-0.5,0-0.7C384.6,37.6,384.2,35.8,383.6,34.1z M360.6,38.5
		c0.1-1.6,0.4-3,1-4.4c0.6-1.3,1.3-2.5,2.3-3.5c1-1,2.1-1.7,3.3-2.2c1.3-0.5,2.6-0.8,4-0.8c1.4,0,2.8,0.3,4,0.8
		c1.3,0.5,2.4,1.3,3.3,2.2c1,1,1.7,2.1,2.4,3.4c0.6,1.3,1,2.8,1.1,4.4H360.6z"/>
	<path class="st0" d="M148.1,50c-0.5,0.4-1,0.7-1.4,0.9c-0.1,0-0.1,0-0.2,0c-0.5,0.1-0.9,0.1-1.3,0.1c-0.1,0-0.2,0-0.3-0.1
		c-2.4-1.2-2.3-8.8-2.3-11.2l0-0.5c0-3.1,0.1-6.2,0.1-9.3c0.1-4.4,0.2-9,0.2-13.5h-1.1V15h-2.7v33.6c0,1.5,0.4,2.7,1.3,3.6
		c0.9,0.9,2.1,1.3,3.5,1.3c0.6,0,1.4-0.1,2.2-0.2c0.9-0.2,1.6-0.4,2.2-0.6l-0.3-1.2c0.2-0.1,0.4-0.3,0.6-0.4L148.1,50z M141.9,47.8
		v-0.7c0.2,1.2,0.5,2.3,0.9,3.2c0,0,0,0,0,0C142.2,49.6,141.9,48.8,141.9,47.8z"/>
</g>
</svg>
